# xmcd
# Track frame offsets:
# 150
# 15401
# 31952
# 43750
# 55873
# 70416
# 82698
# 96295
# 108529
# 122156
# 137425
# 151869
# 159420
# 175557
# 186530
# 198850
#
# Disc length: 2780 seconds
# Revision: 0
# Processed by: cddbd v1.5.2PL0 Copyright (c) Steve Scherf et al.
# Submitted via: VisiTrax 2.10.3.257 - For more info visit www.synapsa.com
#
DISCID=c70ada10
DTITLE=Various Artist - COUNTRY WESTERN PARTY MUSIC
DYEAR=1900
DGENRE=
TTITLE0=ACHY BREAKY HEART
TTITLE1=WIDE OPEN SPACES
TTITLE2=I WALK THE LINE
TTITLE3=RED RIVER VALLEY
TTITLE4=ALL MY EX'S LIVE IN TEXAS
TTITLE5=OKIE FROM MUSKOGEE
TTITLE6=THE YELLOW ROSE OF TEXAS
TTITLE7=CRAZY
TTITLE8=ELVIRA
TTITLE9=FRIENDS IN LOW PLACES
TTITLE10=THANK GOD I'M A COUNTRY BOY
TTITLE11=HOME ON THE RANGE
TTITLE12=THE GAMBLER
TTITLE13=ON THE ROAD AGAIN
TTITLE14=SHE'LL BE COMIN'ROUND THE MOUNTAIN
TTITLE15=RAGTIME COWBOY JOE
EXTD=
EXTT0=
EXTT1=
EXTT2=
EXTT3=
EXTT4=
EXTT5=
EXTT6=
EXTT7=
EXTT8=
EXTT9=
EXTT10=
EXTT11=
EXTT12=
EXTT13=
EXTT14=
EXTT15=
PLAYORDER=
